<?xml version="1.0" encoding="UTF-8" standalone="no"?><!-- Generator: Gravit.io --><svg xmlns="http://www.w3.org/2000/svg" xmlns:xlink="http://www.w3.org/1999/xlink" style="isolation:isolate" viewBox="0 0 512 512" width="512pt" height="512pt"><defs><clipPath id="_clipPath_V6s7H2n56tyzsMpA0xr1VJysShFMC5kw"><rect width="512" height="512"/></clipPath></defs><g clip-path="url(#_clipPath_V6s7H2n56tyzsMpA0xr1VJysShFMC5kw)"><path d=" M 335.46 179.739 C 345.737 197.682 351.616 218.462 351.616 240.604 C 351.616 308.313 296.645 363.284 228.936 363.284 C 189.47 363.284 154.331 344.608 131.895 315.61 Q 117.916 328.54 103.015 342.864 Q 122.029 312.302 134.131 296.035 Q 146.232 279.769 178.211 239.146 L 178.211 254.704 Q 216.457 221.967 274.151 189.879 Q 331.844 157.791 424.543 135.427 L 338.975 171.729 L 367.497 171.729 L 338.975 179.508 Q 337.804 179.264 335.46 179.739 Z  M 144.112 304.418 C 163.382 330.608 194.215 347.578 228.936 347.578 C 287.289 347.578 334.664 299.645 334.664 240.604 C 334.664 220.377 329.103 201.453 319.433 185.323 Q 312.118 188.378 302.22 193.015 C 310.888 206.65 315.91 222.877 315.91 240.28 C 315.91 288.669 277.082 327.955 229.256 327.955 C 200.223 327.955 174.506 313.477 158.814 291.251 Q 151.604 297.622 144.112 304.418 Z  M 170.863 280.733 C 183.608 299.56 205.018 311.911 229.256 311.911 C 268.33 311.911 300.053 279.814 300.053 240.28 C 300.053 225.328 295.515 211.439 287.732 199.971 Q 281.255 203.145 273.978 206.809 C 280.858 216.154 284.917 227.742 284.917 240.28 C 284.917 271.362 259.976 296.596 229.256 296.596 C 209.662 296.596 192.419 286.33 182.521 270.817 Q 176.794 275.621 170.863 280.733 Z  M 193.416 261.806 C 200.682 274.168 214.02 282.456 229.256 282.456 C 252.263 282.456 270.941 263.558 270.941 240.28 C 270.941 230.105 267.372 220.766 261.415 213.493 Q 247.958 221.157 232.303 232.148 C 234.806 234.318 236.391 237.521 236.391 241.09 C 236.391 247.62 231.09 252.921 224.56 252.921 C 219.7 252.921 215.521 249.984 213.702 245.79 Q 203.926 253.242 193.416 261.806 Z " fill-rule="evenodd" fill="rgb(0,0,0)" vector-effect="non-scaling-stroke" stroke-width="1" stroke="rgb(225,91,24)" stroke-opacity="0.5" stroke-linejoin="miter" stroke-linecap="square" stroke-miterlimit="3"/></g></svg>