<?xml version="1.0"?>
<svg xmlns="http://www.w3.org/2000/svg" xmlns:xlink="http://www.w3.org/1999/xlink" xmlns:svgjs="http://svgjs.com/svgjs" version="1.1" width="512" height="512" x="0" y="0" viewBox="0 0 24 24" style="enable-background:new 0 0 512 512" xml:space="preserve" class=""><g><g xmlns="http://www.w3.org/2000/svg"><path d="m17 19c-1.1 0-2-.9-2-2s.9-2 2-2 2 .9 2 2-.9 2-2 2zm0-3c-.6 0-1 .4-1 1s.4 1 1 1 1-.4 1-1-.4-1-1-1z" fill="#ff0000" data-original="#000000" style=""/></g><g xmlns="http://www.w3.org/2000/svg"><path d="m20.5 24c-.3 0-.5-.2-.5-.5v-1c0-.8-.7-1.5-1.5-1.5h-3c-.8 0-1.5.7-1.5 1.5v1c0 .3-.2.5-.5.5s-.5-.2-.5-.5v-1c0-1.4 1.1-2.5 2.5-2.5h3c1.4 0 2.5 1.1 2.5 2.5v1c0 .3-.2.5-.5.5z" fill="#ff0000" data-original="#000000" style=""/></g><g xmlns="http://www.w3.org/2000/svg"><path d="m5.5 17.8c-1.7 0-3-1.3-3-3s1.3-3 3-3 3 1.3 3 3-1.3 3-3 3zm0-5c-1.1 0-2 .9-2 2s.9 2 2 2 2-.9 2-2-.9-2-2-2z" fill="#ff0000" data-original="#000000" style=""/></g><g xmlns="http://www.w3.org/2000/svg"><path d="m10.5 24c-.3 0-.5-.2-.5-.5v-2c0-.8-.7-1.5-1.5-1.5h-6c-.8 0-1.5.7-1.5 1.5v2c0 .3-.2.5-.5.5s-.5-.2-.5-.5v-2c0-1.4 1.1-2.5 2.5-2.5h6c1.4 0 2.5 1.1 2.5 2.5v2c0 .3-.2.5-.5.5z" fill="#ff0000" data-original="#000000" style=""/></g><g xmlns="http://www.w3.org/2000/svg"><path d="m23.5 24c-.3 0-.5-.2-.5-.5v-23c0-.3.2-.5.5-.5s.5.2.5.5v23c0 .3-.2.5-.5.5z" fill="#ff0000" data-original="#000000" style=""/></g><g xmlns="http://www.w3.org/2000/svg"><path d="m23.5 10h-13c-.2 0-.4-.1-.4-.3s-.1-.4 0-.5l2.8-4.2-2.8-4.2c-.1-.2-.1-.4 0-.5s.2-.3.4-.3h13c.3 0 .5.2.5.5v9c0 .3-.2.5-.5.5zm-12.1-1h11.6v-8h-11.6l2.5 3.7c.1.2.1.4 0 .6z" fill="#ff0000" data-original="#000000" style=""/></g></g></svg>
