<?xml version="1.0"?>
<svg xmlns="http://www.w3.org/2000/svg" xmlns:xlink="http://www.w3.org/1999/xlink" xmlns:svgjs="http://svgjs.com/svgjs" version="1.1" width="512" height="512" x="0" y="0" viewBox="0 0 24 24" style="enable-background:new 0 0 512 512" xml:space="preserve" class=""><g><g xmlns="http://www.w3.org/2000/svg"><path d="m12 24c-6.617 0-12-5.383-12-12s5.383-12 12-12 12 5.383 12 12-5.383 12-12 12zm0-23c-6.065 0-11 4.935-11 11s4.935 11 11 11 11-4.935 11-11-4.935-11-11-11z" fill="#ff0000" data-original="#000000" style="" class=""/></g><g xmlns="http://www.w3.org/2000/svg"><path d="m12 18c-3.309 0-6-2.691-6-6s2.691-6 6-6c1.604 0 3.111.624 4.243 1.756.195.195.195.512 0 .707s-.512.195-.707 0c-.943-.943-2.199-1.463-3.536-1.463-2.757 0-5 2.243-5 5s2.243 5 5 5c1.337 0 2.593-.52 3.536-1.463.195-.195.512-.195.707 0s.195.512 0 .707c-1.132 1.132-2.639 1.756-4.243 1.756z" fill="#ff0000" data-original="#000000" style="" class=""/></g><g xmlns="http://www.w3.org/2000/svg"><path d="m12 21c-4.963 0-9-4.038-9-9s4.037-9 9-9c2.403 0 4.663.937 6.363 2.637.195.195.195.512 0 .707s-.512.195-.707 0c-1.511-1.511-3.52-2.344-5.656-2.344-4.411 0-8 3.589-8 8s3.589 8 8 8c2.136 0 4.145-.833 5.656-2.344.195-.195.512-.195.707 0s.195.512 0 .707c-1.7 1.7-3.96 2.637-6.363 2.637z" fill="#ff0000" data-original="#000000" style="" class=""/></g><g xmlns="http://www.w3.org/2000/svg"><path d="m12 15c-1.654 0-3-1.346-3-3s1.346-3 3-3c.794 0 1.567.32 2.123.877.195.195.195.512 0 .707-.195.194-.512.195-.707-.001-.37-.371-.886-.583-1.416-.583-1.103 0-2 .897-2 2s.897 2 2 2c.53 0 1.046-.212 1.416-.583.195-.196.512-.195.707-.001.195.195.195.512 0 .707-.556.557-1.329.877-2.123.877z" fill="#ff0000" data-original="#000000" style="" class=""/></g><g xmlns="http://www.w3.org/2000/svg"><path d="m12 12.5c-.128 0-.256-.049-.354-.146-.195-.195-.195-.512 0-.707l8.13-8.13c.195-.195.512-.195.707 0s.195.512 0 .707l-8.13 8.13c-.097.097-.225.146-.353.146z" fill="#ff0000" data-original="#000000" style="" class=""/></g><g xmlns="http://www.w3.org/2000/svg"><path d="m19 14c-1.103 0-2-.897-2-2s.897-2 2-2 2 .897 2 2-.897 2-2 2zm0-3c-.552 0-1 .449-1 1s.448 1 1 1 1-.449 1-1-.448-1-1-1z" fill="#ff0000" data-original="#000000" style="" class=""/></g></g></svg>
