<?xml version="1.0"?>
<svg xmlns="http://www.w3.org/2000/svg" xmlns:xlink="http://www.w3.org/1999/xlink" xmlns:svgjs="http://svgjs.com/svgjs" version="1.1" width="512" height="512" x="0" y="0" viewBox="0 0 24 24" style="enable-background:new 0 0 512 512" xml:space="preserve" class=""><g><g xmlns="http://www.w3.org/2000/svg"><path d="m8 24c-.043 0-.087-.005-.129-.017l-7.5-2c-.219-.058-.371-.256-.371-.483v-19c0-.155.072-.302.195-.396.122-.095.281-.128.434-.086l7.317 1.951 7.83-3.916c.11-.054.235-.068.353-.036l7.5 2c.219.058.371.256.371.483v19c0 .155-.072.302-.195.396s-.282.127-.434.086l-7.317-1.951-7.83 3.916c-.071.035-.147.053-.224.053zm-7-2.884 6.946 1.853 7.83-3.916c.11-.055.235-.068.353-.036l6.871 1.832v-17.965l-6.946-1.853-7.83 3.916c-.11.055-.236.069-.353.036l-6.871-1.832z" fill="#ff0000" data-original="#000000" style="" class=""/></g><g xmlns="http://www.w3.org/2000/svg"><path d="m8 24c-.276 0-.5-.224-.5-.5v-8c0-.276.224-.5.5-.5s.5.224.5.5v8c0 .276-.224.5-.5.5z" fill="#ff0000" data-original="#000000" style="" class=""/></g><g xmlns="http://www.w3.org/2000/svg"><path d="m8 8c-.276 0-.5-.224-.5-.5v-3c0-.276.224-.5.5-.5s.5.224.5.5v3c0 .276-.224.5-.5.5z" fill="#ff0000" data-original="#000000" style="" class=""/></g><g xmlns="http://www.w3.org/2000/svg"><path d="m16 9c-.276 0-.5-.224-.5-.5v-8c0-.276.224-.5.5-.5s.5.224.5.5v8c0 .276-.224.5-.5.5z" fill="#ff0000" data-original="#000000" style="" class=""/></g><g xmlns="http://www.w3.org/2000/svg"><path d="m16 20c-.276 0-.5-.224-.5-.5v-2c0-.276.224-.5.5-.5s.5.224.5.5v2c0 .276-.224.5-.5.5z" fill="#ff0000" data-original="#000000" style="" class=""/></g><g xmlns="http://www.w3.org/2000/svg"><g><path d="m.499 16c-.232 0-.441-.164-.489-.401-.055-.271.121-.534.392-.589l.98-.197c.267-.055.534.121.589.392s-.121.534-.392.589l-.98.197c-.034.006-.067.009-.1.009z" fill="#ff0000" data-original="#000000" style="" class=""/></g><g><path d="m11.879 15.902c-.051 0-.103-.008-.153-.024-.455-.147-.856-.42-1.161-.79l-.461-.562c-.175-.214-.144-.529.07-.704.213-.175.529-.144.703.07l.46.562c.182.221.423.385.695.473.263.085.407.367.322.629-.068.211-.264.346-.475.346zm1.788-.25c-.184 0-.36-.102-.448-.277-.122-.248-.021-.547.226-.67l1.669-.829c.245-.123.547-.023.671.225.122.248.021.547-.226.67l-1.669.829c-.072.036-.148.052-.223.052zm-10.521-.59c-.119 0-.238-.042-.333-.127-.206-.184-.224-.5-.04-.706.086-.096.161-.206.224-.327l.599-1.194c.124-.248.426-.346.672-.222s.346.424.223.671l-.602 1.198c-.104.201-.227.381-.369.54-.1.11-.238.167-.374.167zm6.163-1.796c-.145 0-.288-.062-.387-.183l-1.182-1.442c-.175-.213-.144-.529.069-.704.216-.175.53-.144.704.07l1.182 1.442c.175.213.144.529-.069.704-.094.076-.206.113-.317.113zm-4.399-1.482c-.107 0-.215-.034-.306-.104-.219-.169-.259-.483-.09-.702.48-.622 1.204-.978 1.984-.978h.002c.276 0 .514.224.514.5s-.21.5-.486.5h-.002c-.496 0-.931.215-1.221.59-.098.127-.245.194-.395.194z" fill="#ff0000" data-original="#000000" style="" class=""/></g><g><path d="m17.024 13.985c-.184 0-.36-.102-.448-.277-.122-.248-.021-.547.226-.67l.896-.445c.245-.123.547-.022.671.225.122.248.021.547-.226.67l-.896.445c-.071.035-.147.052-.223.052z" fill="#ff0000" data-original="#000000" style="" class=""/></g></g><g xmlns="http://www.w3.org/2000/svg"><path d="m19 14c-1.103 0-2-.897-2-2s.897-2 2-2 2 .897 2 2-.897 2-2 2zm0-3c-.552 0-1 .449-1 1s.448 1 1 1 1-.449 1-1-.448-1-1-1z" fill="#ff0000" data-original="#000000" style="" class=""/></g></g></svg>
