<svg width="669" height="149" viewBox="0 0 669 149" fill="none" xmlns="http://www.w3.org/2000/svg">
<path fill-rule="evenodd" clip-rule="evenodd" d="M151.806 28.9395C158.518 40.6578 162.357 54.2289 162.357 68.6895C162.357 112.909 126.457 148.81 82.2371 148.81C56.4624 148.81 33.5137 136.613 18.8611 117.675C12.7748 123.304 6.48774 129.237 0 135.474C8.2785 122.168 15.0523 111.973 20.3214 104.891C25.59 97.8086 35.186 85.4241 49.1093 67.7373V77.898C65.7613 63.6446 86.6469 49.5325 111.766 35.5618C136.885 21.591 169.625 9.73706 209.985 0L154.102 23.7083H172.729L154.102 28.7886C153.592 28.6824 152.827 28.7327 151.806 28.9395ZM26.8398 110.365C39.4248 127.47 59.5613 138.553 82.2371 138.553C120.347 138.553 151.286 107.248 151.286 68.6895C151.286 55.4795 147.655 43.1206 141.339 32.5863C138.154 33.9164 134.407 35.5909 130.098 37.6098C135.759 46.5146 139.038 57.1122 139.038 68.4779C139.038 100.08 113.68 125.737 82.446 125.737C63.485 125.737 46.6897 116.282 36.4415 101.766C33.3023 104.54 30.1018 107.407 26.8398 110.365ZM44.3105 94.8971C52.634 107.193 66.6166 115.259 82.446 115.259C107.965 115.259 128.682 94.2969 128.682 68.4779C128.682 58.713 125.719 49.6423 120.636 42.1527C117.816 43.5346 114.822 45.0232 111.653 46.6185C116.147 52.7216 118.797 60.2895 118.797 68.4779C118.797 88.7771 102.509 105.257 82.446 105.257C69.6495 105.257 58.3884 98.5524 51.9241 88.4211C49.4307 90.5127 46.8928 92.6714 44.3105 94.8971ZM59.0395 82.5362C63.7848 90.6096 72.4957 96.0224 82.446 96.0224C97.4716 96.0224 109.67 83.6804 109.67 68.4779C109.67 61.8327 107.339 55.7336 103.449 50.9837C97.5896 54.3205 91.252 58.3816 84.436 63.167C86.0707 64.5842 87.1058 66.676 87.1058 69.0069C87.1058 73.2715 83.6438 76.7335 79.3792 76.7335C76.2052 76.7335 73.4759 74.8154 72.288 72.0764C68.0316 75.3209 63.6154 78.8075 59.0395 82.5362Z" fill="white"/>
<path d="M292.44 54L274.28 110H257.32L246.6 75.92L235.4 110H218.44L200.28 54H216.6L227.88 89.76L239.72 54H254.28L265.56 90.08L277.32 54H292.44ZM333.683 99.12H310.003L305.603 110H289.442L314.163 54H329.763L354.563 110H338.083L333.683 99.12ZM329.043 87.44L321.843 69.52L314.643 87.44H329.043ZM383.533 95.12H374.893V110H359.053V54H384.653C389.72 54 394.12 54.8533 397.853 56.56C401.586 58.2133 404.466 60.6133 406.493 63.76C408.52 66.8533 409.533 70.5067 409.533 74.72C409.533 78.7733 408.573 82.32 406.653 85.36C404.786 88.3467 402.093 90.6933 398.573 92.4L410.653 110H393.693L383.533 95.12ZM393.533 74.72C393.533 72.1067 392.706 70.08 391.053 68.64C389.4 67.2 386.946 66.48 383.693 66.48H374.893V82.88H383.693C386.946 82.88 389.4 82.1867 391.053 80.8C392.706 79.36 393.533 77.3333 393.533 74.72ZM446.192 111.12C440.325 111.12 435.045 109.893 430.352 107.44C425.712 104.933 422.059 101.467 419.392 97.04C416.725 92.6133 415.392 87.6 415.392 82C415.392 76.4 416.725 71.3867 419.392 66.96C422.059 62.5333 425.712 59.0933 430.352 56.64C435.045 54.1333 440.325 52.88 446.192 52.88C451.312 52.88 455.925 53.7867 460.032 55.6C464.139 57.4133 467.552 60.0267 470.272 63.44L460.192 72.56C456.565 68.1867 452.165 66 446.992 66C443.952 66 441.232 66.6667 438.832 68C436.485 69.3333 434.645 71.2267 433.312 73.68C432.032 76.08 431.392 78.8533 431.392 82C431.392 85.1467 432.032 87.9467 433.312 90.4C434.645 92.8 436.485 94.6667 438.832 96C441.232 97.3333 443.952 98 446.992 98C452.165 98 456.565 95.8133 460.192 91.44L470.272 100.56C467.552 103.973 464.139 106.587 460.032 108.4C455.925 110.213 451.312 111.12 446.192 111.12ZM513.917 99.12H490.237L485.837 110H469.677L494.397 54H509.997L534.797 110H518.317L513.917 99.12ZM509.277 87.44L502.077 69.52L494.877 87.44H509.277ZM589.848 110L589.688 80.32L575.288 104.48H568.248L553.928 81.12V110H539.288V54H552.328L572.008 86.32L591.208 54H604.248L604.408 110H589.848ZM641.216 54C646.282 54 650.682 54.8533 654.416 56.56C658.149 58.2133 661.029 60.6133 663.056 63.76C665.082 66.8533 666.096 70.5067 666.096 74.72C666.096 78.9333 665.082 82.5867 663.056 85.68C661.029 88.7733 658.149 91.1733 654.416 92.88C650.682 94.5333 646.282 95.36 641.216 95.36H631.456V110H615.616V54H641.216ZM640.256 82.88C643.509 82.88 645.962 82.1867 647.616 80.8C649.269 79.36 650.096 77.3333 650.096 74.72C650.096 72.1067 649.269 70.08 647.616 68.64C645.962 67.2 643.509 66.48 640.256 66.48H631.456V82.88H640.256Z" fill="white"/>
</svg>
