<svg width="270" height="78" viewBox="0 0 270 78" fill="none" xmlns="http://www.w3.org/2000/svg">
<path fill-rule="evenodd" clip-rule="evenodd" d="M216.75 25.5407C216.75 29.022 215.874 32.6628 214.124 35.5525C212.373 38.4423 209.987 40.851 206.985 42.7788C209.987 44.7066 212.373 47.1353 214.124 50.0512C215.874 52.9696 216.75 56.1551 216.75 59.5642V75.7841H207.199V59.5642C207.199 57.825 206.816 56.1842 206.072 54.668C205.326 53.1495 204.283 51.8079 202.959 50.6597C201.634 49.5087 200.094 48.6073 198.341 47.9528C196.584 47.3006 194.709 46.9758 192.709 46.9758C190.7 46.9758 188.808 47.3006 187.019 47.9528C185.228 48.6073 183.672 49.5087 182.347 50.6597C181.022 51.8079 179.979 53.1495 179.234 54.668C178.488 56.1842 178.106 57.8337 178.106 59.5642V75.7841H168.556V0.390137H178.106V42.967C180.184 41.5958 182.457 40.5407 184.921 39.7955C187.396 39.0484 189.987 38.6774 192.709 38.6774C194.709 38.6774 196.584 38.3497 198.341 37.6971C200.094 37.042 201.634 36.1411 202.959 34.9935C204.283 33.8424 205.323 32.4887 206.072 30.9352C206.822 29.3812 207.199 27.2828 207.199 25.5407V23.6653H216.75V25.5407Z" fill="white"/>
<path fill-rule="evenodd" clip-rule="evenodd" d="M86.954 23.3501V53.0346C86.954 56.3214 86.328 59.4405 85.0761 62.3734C83.8232 65.3068 82.084 67.8838 79.8668 70.104C77.65 72.3241 75.0905 74.0604 72.1915 75.3133C69.293 76.5618 66.1623 77.1912 62.8003 77.1912C58.8608 77.1912 55.2122 76.3126 51.8493 74.5593C48.4843 72.8085 45.6959 70.4259 43.4758 67.4203C41.2585 70.4259 38.4817 72.8085 35.1537 74.5593C31.8295 76.3126 28.1601 77.1912 24.1508 77.1912C20.8586 77.1912 17.7482 76.5618 14.8148 75.3133C11.8756 74.0604 9.30151 72.3241 7.08426 70.104C4.86409 67.8838 3.12782 65.3068 1.87883 62.3734C0.623527 59.4463 0 56.3306 0 53.0346V23.3501H9.65837V53.0346C9.65837 55.0351 10.0356 56.9362 10.7886 58.7244C11.5396 60.5154 12.5777 62.0694 13.9018 63.394C15.2265 64.7182 16.7625 65.7563 18.5162 66.5073C20.27 67.2608 22.1483 67.6375 24.1508 67.6375C26.1566 67.6375 28.0553 67.2608 29.844 66.5073C31.6321 65.7563 33.189 64.7182 34.5132 63.394C35.8378 62.0694 36.873 60.5154 37.6264 58.7244C38.377 56.9362 38.7513 55.0399 38.7513 53.0346V23.3501H48.3049V53.0346C48.3049 55.0351 48.6875 56.9391 49.4318 58.7244C50.1828 60.5101 51.2209 62.0694 52.5455 63.394C53.8701 64.7182 55.4091 65.7563 57.1599 66.5073C58.9136 67.2608 60.7944 67.6375 62.8003 67.6375C64.8032 67.6375 66.7019 67.2608 68.4901 66.5073C70.2816 65.7563 71.8322 64.7182 73.1568 63.394C74.4815 62.0694 75.5254 60.5101 76.2696 58.7244C77.0207 56.9391 77.4032 55.0399 77.4032 53.0346V23.3501H86.954Z" fill="white"/>
<path fill-rule="evenodd" clip-rule="evenodd" d="M236.521 37.9914C233.428 41.0838 231.886 44.7974 231.886 49.1247C231.886 51.5185 232.426 53.8002 233.507 55.9656C234.438 55.0351 235.852 53.6257 237.742 51.7299C239.632 49.8409 241.643 47.8292 243.771 45.704C245.892 43.5765 247.948 41.5478 249.913 39.6171C251.883 37.684 253.408 36.1771 254.493 35.0929C251.559 33.6258 248.446 33.1244 245.162 33.5879C241.875 34.049 239 35.522 236.521 37.9914ZM262.376 56.6609L269.681 63.9653L266.086 67.5595C263.62 70.0294 260.794 71.9242 257.626 73.2406C254.455 74.5531 251.13 75.2115 247.652 75.2115C244.174 75.2115 240.849 74.5531 237.684 73.2406C234.512 71.9242 231.695 70.0323 229.22 67.5595C226.669 65.0087 224.774 62.1272 223.536 58.9218C222.298 55.713 221.681 52.4489 221.681 49.1247C221.681 45.7996 222.298 42.5534 223.536 39.3854C224.774 36.2173 226.669 33.3537 229.22 30.8053C231.773 28.255 234.649 26.3393 237.857 25.0665C241.066 23.7909 244.333 23.1509 247.652 23.1509C250.98 23.1509 254.243 23.7909 257.452 25.0665C260.658 26.3393 263.538 28.255 266.086 30.8053L269.681 34.3967L240.814 63.2695C243.753 64.7362 246.864 65.2172 250.147 64.7153C253.428 64.2174 256.313 62.7274 258.788 60.2551L262.376 56.6609Z" fill="white"/>
<path fill-rule="evenodd" clip-rule="evenodd" d="M105.457 42.107C102.637 44.927 101.225 48.3156 101.225 52.2633C101.225 54.4486 101.718 56.5301 102.706 58.5035C103.55 57.6579 104.84 56.3701 106.568 54.643C108.295 52.9155 110.127 51.0803 112.066 49.1443C114.008 47.2024 115.877 45.3502 117.674 43.5883C119.478 41.8229 120.869 40.4488 121.854 39.4631C119.177 38.1215 116.339 37.6628 113.339 38.0866C110.339 38.5099 107.715 39.852 105.457 42.107ZM133.492 13.5421C130.669 16.3615 129.261 19.7502 129.261 23.6979C129.261 25.8861 129.756 27.9676 130.738 29.9385C131.59 29.0925 132.875 27.8052 134.602 26.0805C136.33 24.3501 138.168 22.5183 140.107 20.5764C142.046 18.6404 143.913 16.7882 145.71 15.0228C147.509 13.2609 148.904 11.8834 149.889 10.8982C147.211 9.55559 144.37 9.09788 141.373 9.52358C138.379 9.94444 135.748 11.2861 133.492 13.5421ZM129.046 59.1386L135.713 65.8054L132.431 69.0836C130.176 71.3416 127.602 73.0691 124.716 74.2657C121.819 75.4662 118.784 76.066 115.614 76.066C112.44 76.066 109.408 75.4662 106.515 74.2657C103.62 73.0691 101.049 71.3416 98.7907 69.0836C96.8309 67.1238 95.2978 64.9535 94.1879 62.5675C94.2975 62.7503 94.4109 62.9297 94.521 63.1096C92.8861 59.9067 91.9644 56.2804 91.9644 52.4374C91.9644 39.4631 102.484 28.9412 115.46 28.9412C123.814 28.9412 131.153 33.3034 135.318 39.8689C132.301 33.9648 126.854 29.5007 120.303 27.7964C120.066 26.4427 119.95 25.0754 119.95 23.6979C119.95 20.6661 120.513 17.7041 121.643 14.811C122.771 11.9183 124.498 9.30928 126.828 6.98244C129.153 4.65464 131.782 2.90915 134.709 1.74743C137.634 0.582316 140.614 0 143.648 0C146.68 0 149.657 0.582316 152.588 1.74743C155.518 2.90915 158.139 4.65464 160.472 6.98244L163.753 10.2635L137.405 36.6058C140.089 37.944 142.927 38.3853 145.921 37.9271C148.921 37.4694 151.547 36.1127 153.805 33.8547L157.087 30.5766L163.753 37.24L160.472 40.5181C158.208 42.7761 155.64 44.5066 152.744 45.7037C149.855 46.9013 146.823 47.5011 143.648 47.5011C140.475 47.5011 137.44 46.9013 134.549 45.7037C133.234 45.1592 131.985 44.5037 130.8 43.7386L109.373 65.1708C112.048 66.5095 114.889 66.9502 117.889 66.4925C120.886 66.0343 123.513 64.6752 125.765 62.4202L129.046 59.1386Z" fill="white"/>
<path fill-rule="evenodd" clip-rule="evenodd" d="M216.75 25.5407C216.75 29.022 215.874 32.6628 214.124 35.5525C212.373 38.4423 209.987 40.851 206.985 42.7788C209.987 44.7066 212.373 47.1353 214.124 50.0512C215.874 52.9696 216.75 56.1551 216.75 59.5642V75.7841H207.199V59.5642C207.199 57.825 206.816 56.1842 206.072 54.668C205.326 53.1495 204.283 51.8079 202.959 50.6597C201.634 49.5087 200.094 48.6073 198.341 47.9528C196.584 47.3006 194.709 46.9758 192.709 46.9758C190.7 46.9758 188.808 47.3006 187.019 47.9528C185.228 48.6073 183.672 49.5087 182.347 50.6597C181.022 51.8079 179.979 53.1495 179.234 54.668C178.488 56.1842 178.106 57.8337 178.106 59.5642V75.7841H168.556V0.390137H178.106V42.967C180.184 41.5958 182.457 40.5407 184.921 39.7955C187.396 39.0484 189.987 38.6774 192.709 38.6774C194.709 38.6774 196.584 38.3497 198.341 37.6971C200.094 37.042 201.634 36.1411 202.959 34.9935C204.283 33.8424 205.323 32.4887 206.072 30.9352C206.822 29.3812 207.199 27.2828 207.199 25.5407V23.6653H216.75V25.5407Z" fill="white"/>
<path fill-rule="evenodd" clip-rule="evenodd" d="M86.954 23.3501V53.0346C86.954 56.3214 86.328 59.4405 85.0761 62.3734C83.8232 65.3068 82.084 67.8838 79.8668 70.104C77.65 72.3241 75.0905 74.0604 72.1915 75.3133C69.293 76.5618 66.1623 77.1912 62.8003 77.1912C58.8608 77.1912 55.2122 76.3126 51.8493 74.5593C48.4843 72.8085 45.6959 70.4259 43.4758 67.4203C41.2585 70.4259 38.4817 72.8085 35.1537 74.5593C31.8295 76.3126 28.1601 77.1912 24.1508 77.1912C20.8586 77.1912 17.7482 76.5618 14.8148 75.3133C11.8756 74.0604 9.30151 72.3241 7.08426 70.104C4.86409 67.8838 3.12782 65.3068 1.87883 62.3734C0.623527 59.4463 0 56.3306 0 53.0346V23.3501H9.65837V53.0346C9.65837 55.0351 10.0356 56.9362 10.7886 58.7244C11.5396 60.5154 12.5777 62.0694 13.9018 63.394C15.2265 64.7182 16.7625 65.7563 18.5162 66.5073C20.27 67.2608 22.1483 67.6375 24.1508 67.6375C26.1566 67.6375 28.0553 67.2608 29.844 66.5073C31.6321 65.7563 33.189 64.7182 34.5132 63.394C35.8378 62.0694 36.873 60.5154 37.6264 58.7244C38.377 56.9362 38.7513 55.0399 38.7513 53.0346V23.3501H48.3049V53.0346C48.3049 55.0351 48.6875 56.9391 49.4318 58.7244C50.1828 60.5101 51.2209 62.0694 52.5455 63.394C53.8701 64.7182 55.4091 65.7563 57.1599 66.5073C58.9136 67.2608 60.7944 67.6375 62.8003 67.6375C64.8032 67.6375 66.7019 67.2608 68.4901 66.5073C70.2816 65.7563 71.8322 64.7182 73.1568 63.394C74.4815 62.0694 75.5254 60.5101 76.2696 58.7244C77.0207 56.9391 77.4032 55.0399 77.4032 53.0346V23.3501H86.954Z" fill="white"/>
<path fill-rule="evenodd" clip-rule="evenodd" d="M236.521 37.9914C233.428 41.0838 231.886 44.7974 231.886 49.1247C231.886 51.5185 232.426 53.8002 233.507 55.9656C234.438 55.0351 235.852 53.6257 237.742 51.7299C239.632 49.8409 241.643 47.8292 243.771 45.704C245.892 43.5765 247.948 41.5478 249.913 39.6171C251.883 37.684 253.408 36.1771 254.493 35.0929C251.559 33.6258 248.446 33.1244 245.162 33.5879C241.875 34.049 239 35.522 236.521 37.9914ZM262.376 56.6609L269.681 63.9653L266.086 67.5595C263.62 70.0294 260.794 71.9242 257.626 73.2406C254.455 74.5531 251.13 75.2115 247.652 75.2115C244.174 75.2115 240.849 74.5531 237.684 73.2406C234.512 71.9242 231.695 70.0323 229.22 67.5595C226.669 65.0087 224.774 62.1272 223.536 58.9218C222.298 55.713 221.681 52.4489 221.681 49.1247C221.681 45.7996 222.298 42.5534 223.536 39.3854C224.774 36.2173 226.669 33.3537 229.22 30.8053C231.773 28.255 234.649 26.3393 237.857 25.0665C241.066 23.7909 244.333 23.1509 247.652 23.1509C250.98 23.1509 254.243 23.7909 257.452 25.0665C260.658 26.3393 263.538 28.255 266.086 30.8053L269.681 34.3967L240.814 63.2695C243.753 64.7362 246.864 65.2172 250.147 64.7153C253.428 64.2174 256.313 62.7274 258.788 60.2551L262.376 56.6609Z" fill="white"/>
</svg>
